Coordinates
version=1
nRows=15
nColumns=34
inDegrees=yes

Units are S.I. units (second, meters, Newtons, ...)
If the header above contains a line with 'inDegrees', this indicates whether rotational values are in degrees (yes) or radians (no).

endheader
time	pelvis_tilt	pelvis_list	pelvis_rotation	pelvis_tx	pelvis_ty	pelvis_tz	hip_flexion_r	hip_adduction_r	hip_rotation_r	knee_angle_r	ankle_angle_r	subtalar_angle_r	mtp_angle_r	hip_flexion_l	hip_adduction_l	hip_rotation_l	knee_angle_l	ankle_angle_l	subtalar_angle_l	mtp_angle_l	lumbar_extension	lumbar_bending	lumbar_rotation	arm_flex_r	arm_add_r	arm_rot_r	elbow_flex_r	pro_sup_r	arm_flex_l	arm_add_l	arm_rot_l	elbow_flex_l	pro_sup_l
      0.00000000	      2.06116846	     -1.68397223	     -0.04858255	      0.07960064	      1.00254895	      0.06222828	     -7.85947574	     -0.77138013	     -2.84800958	      2.38799875	      5.61880459	    -10.85012925	      0.00000000	     -7.75372328	     -4.29844742	     -4.57430296	      2.02018261	      7.09214003	     -8.99077674	      0.00000000	     -8.42670529	      2.35953927	     -3.69335657	      5.76650709	     -4.00844207	     21.13414631	     20.22346388	     76.99657725	      1.97050288	     -4.24893231	     17.95508045	     22.37327148	     66.98065114
      0.01666670	      0.52853572	     -1.55244503	     -0.43395654	      0.08128988	      0.99956721	      0.06196370	     -6.20036648	     -0.79390509	     -2.97948838	      2.64565328	      8.94351914	     -7.52329182	      0.00000000	     -6.01028296	     -3.66999642	     -6.24158850	      1.85335134	      8.50176085	     -7.09892627	      0.00000000	     -6.03091853	      2.42408307	     -3.54494795	      4.98236317	     -3.55825714	     17.96365196	     19.92997477	     76.48017728	      1.73501384	     -3.33006714	     16.61377703	     21.31843671	     67.13140662
      0.03333330	      0.26941775	     -1.04944578	     -0.75062567	      0.08100085	      0.99971959	      0.06302708	     -6.17848285	     -1.32155290	     -3.48005263	      1.92844707	      9.57564592	     -6.49177215	      0.00000000	     -5.95714836	     -3.12034073	     -8.08182983	      1.63648742	      8.93724047	     -5.08887435	      0.00000000	     -5.79153854	      1.58944440	     -3.10473656	      4.35696660	     -2.68011128	     13.83549152	     20.53542953	     76.28160069	      2.07606412	     -3.59914251	     16.54270678	     21.09479442	     68.28691680
      0.05000000	      0.81094656	     -0.86666587	     -0.98772540	      0.08091749	      0.99955972	      0.06363308	     -6.86269988	     -1.60038495	     -3.33070545	      1.52141746	      9.99051412	     -5.83374233	      0.00000000	     -7.16992738	     -2.81867030	     -8.67451856	      0.73799748	      8.53738305	     -4.95595342	      0.00000000	     -6.42766117	      1.20883274	     -2.58520019	      4.32524986	     -2.44912253	     13.65730021	     20.45677550	     76.50856723	      2.26599810	     -3.96213199	     17.40487626	     21.35392385	     68.85206396
      0.06666670	      0.85390849	     -0.73157282	     -0.99134332	      0.08164155	      1.00032549	      0.06370872	     -7.17804786	     -1.72301264	     -3.20052087	      1.05131472	     10.01029956	     -5.52617695	      0.00000000	     -7.61439010	     -2.58739734	     -8.73566393	      0.12802274	      8.33063593	     -4.62583060	      0.00000000	     -6.40750645	      1.13989451	     -2.58477610	      4.24721420	     -2.37890400	     13.76954148	     20.52856628	     76.62019609	      2.23879079	     -4.01864372	     17.96943455	     21.40243374	     69.12076462
      0.08333330	      0.95103118	     -0.67914249	     -1.03200515	      0.08166391	      1.00096375	      0.06401550	     -7.37421009	     -1.74854530	     -3.14625327	      0.86323667	     10.13704415	     -5.37313235	      0.00000000	     -7.81215182	     -2.51710451	     -8.83509016	      0.00000000	      8.18394656	     -4.43231571	      0.00000000	     -6.73314750	      1.18050060	     -2.50827107	      4.39476937	     -2.36446696	     13.95154973	     20.57063120	     76.71837395	      2.46404185	     -3.93345514	     18.47488003	     21.51342602	     69.33864324
      0.10000000	      0.93952298	     -0.66288859	     -1.02293242	      0.08263730	      0.99973534	      0.06478628	     -7.39816333	     -1.72769932	     -3.14627946	      0.87440114	     10.13618319	     -5.37064463	      0.00000000	     -7.82261625	     -2.51098492	     -8.84073628	      0.00107875	      8.18332769	     -4.43129313	      0.00000000	     -6.73020930	      1.17641615	     -2.50542871	      4.40594180	     -2.36768739	     13.95552983	     20.57393571	     76.72042994	      2.47013990	     -3.92530910	     18.48564574	     21.51763370	     69.34294329
      0.11666670	      1.54456109	     -0.63682136	     -1.01376974	      0.08320573	      1.00186916	      0.06491483	     -8.27807266	     -1.72753382	     -3.49073189	      0.54184736	     10.19343428	     -4.69703836	      0.00000000	     -8.51517874	     -2.48792644	     -9.68060719	      0.00000000	      8.59025461	     -2.94194364	      0.00000000	     -7.34231044	      1.12452514	     -1.85381927	      4.47681413	     -3.06744333	     18.03909868	     20.63591178	     78.66980342	      3.51655741	     -4.73684582	     26.76791071	     21.08524292	     72.96158945
      0.13333330	      1.54707395	     -0.62076225	     -1.02021682	      0.08286378	      1.00144893	      0.06526804	     -8.28835690	     -1.71167120	     -3.49249447	      0.53872535	     10.19422114	     -4.69854895	      0.00000000	     -8.50511052	     -2.47820243	     -9.68079277	      0.00000000	      8.58558021	     -2.94134223	      0.00000000	     -7.34395916	      1.12798610	     -1.85365683	      4.47607659	     -3.06958136	     18.03946665	     20.63521395	     78.67035949	      3.51441181	     -4.73403199	     26.76961479	     21.08436175	     72.96255142
      0.15000000	      1.55074067	     -0.55072334	     -0.98280164	      0.08291083	      1.00206768	      0.06529806	     -8.44280837	     -1.75955909	     -3.46972571	      0.25106413	     10.15247835	     -4.70436626	      0.00000000	     -8.47711785	     -2.42176295	     -9.71608011	      0.00000000	      8.27822369	     -2.86885031	      0.00000000	     -7.37254638	      1.13710986	     -1.84710151	      4.46209344	     -3.12759615	     18.08605782	     20.61980322	     78.70672478	      3.46950903	     -4.70177230	     26.85818649	     21.04148800	     73.01291087
      0.16666670	      1.56080164	     -0.53695551	     -0.99072095	      0.08261875	      1.00218849	      0.06526817	     -8.45963288	     -1.75125797	     -3.47095533	      0.25125302	     10.14725448	     -4.70441613	      0.00000000	     -8.45795625	     -2.42873610	     -9.72039930	      0.00000000	      8.26987866	     -2.86780771	      0.00000000	     -7.37198016	      1.13712204	     -1.85184213	      4.45556354	     -3.12992376	     18.08845865	     20.61778514	     78.70830193	      3.47295356	     -4.70552664	     26.86125235	     21.04032707	     73.01494813
      0.18333330	      1.58237704	     -0.54187938	     -0.89889724	      0.08318386	      1.00168769	      0.06589489	     -8.62252049	     -1.69134056	     -3.47193031	      0.00000000	     10.00109481	     -4.70476936	      0.00000000	     -8.46493203	     -2.48743482	     -9.83094777	      0.00000000	      7.88443314	     -2.75147260	      0.00000000	     -7.38807341	      1.14407981	     -1.93034901	      4.33410451	     -3.18597095	     18.17671489	     20.58548521	     78.76609151	      3.50755797	     -4.89081315	     26.97869601	     20.96716761	     73.09026375
      0.20000000	      1.56318710	     -0.52842556	     -0.90635263	      0.08357874	      1.00156795	      0.06556980	     -8.63111977	     -1.68230374	     -3.47707870	      0.00000000	      9.99568607	     -4.70737043	      0.00000000	     -8.48176129	     -2.49784946	     -9.83221491	      0.00000000	      7.87788535	     -2.74836302	      0.00000000	     -7.38609097	      1.14403124	     -1.93370068	      4.33543393	     -3.18662215	     18.17926660	     20.58643882	     78.76786725	      3.51100267	     -4.88897173	     26.98337381	     20.96760953	     73.09287795
      0.21666670	      1.65241077	     -0.57913018	     -0.82894440	      0.08433027	      1.00306566	      0.06514528	     -8.75791701	     -1.60502253	     -3.71810501	      0.00000000	      9.79927432	     -4.80684915	      0.00000000	     -8.58834456	     -2.58729264	    -10.01586808	      0.00000000	      7.61422099	     -2.67995490	      0.00000000	     -7.24532101	      1.26338905	     -1.95749133	      4.28065654	     -3.26704609	     18.25000284	     20.56984701	     78.81715163	      3.50904790	     -4.95879975	     27.10451992	     20.93607964	     73.16590138
      0.23333330	      1.62164378	     -0.59503695	     -0.82759134	      0.08424729	      1.00187167	      0.06562746	     -8.72640336	     -1.56894931	     -3.84984553	      0.00000000	      9.67103615	     -4.85341256	      0.00000000	     -8.57292103	     -2.62468503	    -10.10045464	      0.00000000	      7.47389921	     -2.61479531	      0.00000000	     -7.35114807	      1.30152257	     -1.98499528	      4.20239558	     -3.30688395	     18.31340898	     20.53313871	     78.85838511	      3.48951139	     -4.96404559	     27.21629168	     20.90851621	     73.23011561
